<svg xmlns="http://www.w3.org/2000/svg" viewBox="0 0 1440 320"><path fill="#ffffff" fill-opacity="1" d="M0,160L30,149.3C60,139,120,117,180,133.3C240,149,300,203,360,224C420,245,480,235,540,229.3C600,224,660,224,720,229.3C780,235,840,245,900,256C960,267,1020,277,1080,266.7C1140,256,1200,224,1260,197.3C1320,171,1380,149,1410,138.7L1440,128L1440,320L1410,320C1380,320,1320,320,1260,320C1200,320,1140,320,1080,320C1020,320,960,320,900,320C840,320,780,320,720,320C660,320,600,320,540,320C480,320,420,320,360,320C300,320,240,320,180,320C120,320,60,320,30,320L0,320Z"></path></svg>