<svg xmlns="http://www.w3.org/2000/svg" viewBox="0 0 1440 320"><path fill="#ffffff" fill-opacity="1" d="M 0 249 L 0 246 C 26 232 59 216 59 216 C 232 144 300 224 360 250.7 C 420 277 480 235 540 234.7 C 600 235 660 277 720 293.3 C 780 309 840 299 900 272 C 962 248 1005 235 1057 218 C 1144 197 1184 195 1220 192 C 1347 180 1376 189 1440 195 L 1441 195 L 1440 320 L 1410 320 C 1380 320 1320 320 1260 320 C 1200 320 1140 320 1080 320 C 1020 320 960 320 900 320 C 840 320 780 320 720 320 C 660 320 600 320 540 320 C 480 320 420 320 360 320 C 300 320 240 320 180 320 C 120 320 60 320 30 320 L 0 320 Z"></path></svg>