<svg xmlns="http://www.w3.org/2000/svg" viewBox="0 0 1440 320"><path fill="#ffffff" fill-opacity="1" d="M0,192L30,165.3C60,139,120,85,180,106.7C240,128,300,224,360,250.7C420,277,480,235,540,234.7C600,235,660,277,720,293.3C780,309,840,299,900,272C960,245,1020,203,1080,170.7C1140,139,1200,117,1260,101.3C1320,85,1380,75,1410,69.3L1440,64L1440,320L1410,320C1380,320,1320,320,1260,320C1200,320,1140,320,1080,320C1020,320,960,320,900,320C840,320,780,320,720,320C660,320,600,320,540,320C480,320,420,320,360,320C300,320,240,320,180,320C120,320,60,320,30,320L0,320Z"></path></svg>