<svg xmlns="http://www.w3.org/2000/svg" viewBox="0 0 1440 320"><path fill="#ffffff" fill-opacity="1" d="M0,192L30,202.7C60,213,120,235,180,234.7C240,235,300,213,360,202.7C420,192,480,192,540,208C600,224,660,256,720,261.3C780,267,840,245,900,224C960,203,1020,181,1080,165.3C1140,149,1200,139,1260,144C1320,149,1380,171,1410,181.3L1440,192L1440,320L1410,320C1380,320,1320,320,1260,320C1200,320,1140,320,1080,320C1020,320,960,320,900,320C840,320,780,320,720,320C660,320,600,320,540,320C480,320,420,320,360,320C300,320,240,320,180,320C120,320,60,320,30,320L0,320Z"></path></svg>