<svg xmlns="http://www.w3.org/2000/svg" viewBox="0 0 1440 320"><path fill="#ffffff" fill-opacity="1" d="M 0 183 L 0 183 C 60 203 118 198 180 181.3 C 240 163 300 128 360 101.3 C 420 75 480 53 540 37.3 C 600 21 660 11 720 10.7 C 780 11 840 21 900 53.3 C 960 85 1020 135 1080 154.7 C 1138 175 1202 176 1259 166 C 1326 155 1366 103 1439 126 L 1448 129 L 1440 0 L 1410 0 C 1380 0 1320 0 1260 0 C 1200 0 1140 0 1080 0 C 1020 0 960 0 900 0 C 840 0 780 0 720 0 C 660 0 600 0 540 0 C 480 0 420 0 360 0 C 300 0 240 0 180 0 C 120 0 60 0 30 0 L 0 0 Z"></path></svg>