<svg xmlns="http://www.w3.org/2000/svg" viewBox="0 0 1440 320"><path fill="#ffffff" fill-opacity="1" d="M 0 143 L 23 141 C 60 139 120 85 180 64 C 240 43 300 53 360 90.7 C 420 128 480 192 540 192 C 600 192 660 128 720 106.7 C 780 85 840 107 900 117.3 C 960 128 1020 128 1080 112 C 1140 96 1200 64 1260 53.3 C 1320 43 1380 53 1410 58.7 L 1440 64 L 1440 0 L 1410 0 C 1380 0 1320 0 1260 0 C 1200 0 1140 0 1080 0 C 1020 0 960 0 900 0 C 840 0 780 0 720 0 C 660 0 600 0 540 0 C 480 0 420 0 360 0 C 300 0 240 0 180 0 C 120 0 60 0 30 0 L 0 0 Z"></path></svg>