<svg xmlns="http://www.w3.org/2000/svg" viewBox="0 0 1440 320"><path fill="#ffffff" fill-opacity="1" d="M0,192L30,165.3C60,139,120,85,180,64C240,43,300,53,360,90.7C420,128,480,192,540,192C600,192,660,128,720,106.7C780,85,840,107,900,117.3C960,128,1020,128,1080,112C1140,96,1200,64,1260,53.3C1320,43,1380,53,1410,58.7L1440,64L1440,0L1410,0C1380,0,1320,0,1260,0C1200,0,1140,0,1080,0C1020,0,960,0,900,0C840,0,780,0,720,0C660,0,600,0,540,0C480,0,420,0,360,0C300,0,240,0,180,0C120,0,60,0,30,0L0,0Z"></path></svg>