<svg xmlns="http://www.w3.org/2000/svg" viewBox="0 0 1440 320"><path fill="#ffffff" fill-opacity="1" d="M0,224L30,218.7C60,213,120,203,180,181.3C240,160,300,128,360,101.3C420,75,480,53,540,37.3C600,21,660,11,720,10.7C780,11,840,21,900,53.3C960,85,1020,139,1080,154.7C1140,171,1200,149,1260,160C1320,171,1380,213,1410,234.7L1440,256L1440,0L1410,0C1380,0,1320,0,1260,0C1200,0,1140,0,1080,0C1020,0,960,0,900,0C840,0,780,0,720,0C660,0,600,0,540,0C480,0,420,0,360,0C300,0,240,0,180,0C120,0,60,0,30,0L0,0Z"></path></svg>