<svg xmlns="http://www.w3.org/2000/svg" viewBox="0 0 1440 320"><path fill="#ffffff" fill-opacity="1" d="M0,96L30,112C60,128,120,160,180,149.3C240,139,300,85,360,53.3C420,21,480,11,540,16C600,21,660,43,720,48C780,53,840,43,900,64C960,85,1020,139,1080,154.7C1140,171,1200,149,1260,138.7C1320,128,1380,128,1410,128L1440,128L1440,0L1410,0C1380,0,1320,0,1260,0C1200,0,1140,0,1080,0C1020,0,960,0,900,0C840,0,780,0,720,0C660,0,600,0,540,0C480,0,420,0,360,0C300,0,240,0,180,0C120,0,60,0,30,0L0,0Z"></path></svg>